<?xml version="1.0" standalone="no"?>
<!DOCTYPE svg PUBLIC "-//W3C//DTD SVG 20010904//EN"
 "http://www.w3.org/TR/2001/REC-SVG-20010904/DTD/svg10.dtd">
<svg version="1.0" xmlns="http://www.w3.org/2000/svg"
 width="512.000000pt" height="512.000000pt" viewBox="0 0 512.000000 512.000000"
 preserveAspectRatio="xMidYMid meet">
<metadata>
Created by potrace 1.16, written by Peter Selinger 2001-2019
</metadata>
<g transform="translate(0.000000,512.000000) scale(0.100000,-0.100000)"
fill="#000000" stroke="none">
<path d="M2360 5114 c-531 -50 -998 -235 -1395 -552 -99 -80 -335 -309 -335
-326 0 -6 190 -201 423 -434 l423 -422 58 70 c101 121 268 251 424 329 80 41
242 94 352 118 116 24 380 24 503 0 286 -57 508 -178 735 -401 l82 -81 420
420 c231 231 420 425 420 430 0 15 -211 212 -315 296 -355 285 -774 466 -1237
535 -100 14 -467 26 -558 18z"/>
<path d="M356 3861 c-171 -287 -277 -591 -333 -951 -25 -161 -25 -539 0 -700
55 -354 162 -664 325 -937 39 -65 76 -125 81 -133 9 -12 95 70 450 424 l439
439 -25 66 c-121 312 -122 669 -3 972 l28 74 -436 438 c-240 240 -440 437
-443 437 -3 0 -40 -58 -83 -129z"/>
<path d="M2410 2550 l0 -600 680 0 c374 0 680 -4 680 -8 0 -12 -63 -115 -114
-186 -55 -78 -171 -202 -225 -241 -22 -16 -41 -35 -41 -40 0 -13 832 -845 846
-845 18 0 232 219 317 325 138 171 265 377 347 565 208 473 269 996 177 1505
l-22 120 -1322 3 -1323 2 0 -600z"/>
<path d="M1052 1317 c-232 -232 -422 -427 -422 -433 0 -17 236 -246 333 -324
785 -627 1871 -737 2761 -280 90 46 244 137 266 157 2 2 -193 201 -434 442
l-438 439 -59 -24 c-217 -88 -522 -116 -755 -69 -103 21 -266 76 -344 115
-158 80 -325 210 -426 330 -32 38 -58 70 -59 70 0 0 -190 -190 -423 -423z"/>
</g>
</svg>
