<?xml version="1.0"?>
<svg xmlns="http://www.w3.org/2000/svg" xmlns:xlink="http://www.w3.org/1999/xlink" xmlns:svgjs="http://svgjs.com/svgjs" version="1.1" width="512" height="512" x="0" y="0" viewBox="0 0 512 512" style="enable-background:new 0 0 512 512" xml:space="preserve" class=""><g><link type="text/css" rel="stylesheet" id="dark-mode-custom-link"/><link type="text/css" rel="stylesheet" id="dark-mode-general-link"/><style lang="en" type="text/css" id="dark-mode-custom-style"/><style lang="en" type="text/css" id="dark-mode-native-style"/><linearGradient xmlns="http://www.w3.org/2000/svg" id="a" gradientTransform="matrix(1 0 0 -1 0 -18006)" gradientUnits="userSpaceOnUse" x1="0" x2="512" y1="-18262" y2="-18262"><stop stop-opacity="1" stop-color="#00f38d" offset="0"/><stop stop-opacity="1" stop-color="#009eff" offset="0"/><stop stop-opacity="1" stop-color="#009eff" offset="0.3166023166023166"/><stop stop-opacity="1" stop-color="#009eff" offset="1"/></linearGradient><path xmlns="http://www.w3.org/2000/svg" d="m512 256c0 141.386719-114.613281 256-256 256s-256-114.613281-256-256 114.613281-256 256-256 256 114.613281 256 256zm0 0" fill="url(#a)" data-original="url(#a)" style="" class=""/><path xmlns="http://www.w3.org/2000/svg" d="m451.980469 229.195312c-9.136719 10.796876-22.96875 15.3125-22.96875 15.3125 18.269531-47.335937-3.605469-124.441406-16.894531-136.328124 2.351562 17.667968-.453126 26.90625-3.773438 36.042968-25.742188-34.046875-72.921875-70.925781-119.425781-84.210937 50.65625 26.574219 100.609375 127.714843 96.460937 178.371093 0 0-8.421875-16.84375-33.6875-23.730468 29.09375 58.945312-1.851562 130.140625-76.589844 130.140625-53.894531 0-68.304687-22.265625-75.75-32.917969v-.765625c4.597657 1.125 11.082032 1.625 14.949219 1.625 14.488281 0 24.511719-6.988281 35.058594-14.195313 3.804687-2.589843 7.242187-3.523437 10.390625-3.523437 8.085938 0 14.28125 6.140625 20.070312 6.140625 6.078126 0 18.285157-13.011719 6.34375-24.726562-4.890624-4.800782-11.179687-12.015626-24.335937-12.019532-.007813 0-.007813 0-.011719 0-3.207031.003906-5.167968.277344-8.761718 1.171875-10.785157 2.71875-15.910157 10.3125-28.601563 10.3125-7.480469 0-44.238281-2.828125-44.238281-35.214843 0-10.792969 12.789062-19.027344 13.011718-19.136719.707032-.179688 1.449219-.257813 2.21875-.257813 9.234376 0 22.277344 11.738282 22.277344 11.738282s2.933594-19.203126-6.886718-27.558594c1-4.785156 27.203124-17.433594 29.320312-18.992188 2.894531-2.113281 6.296875-5.277344 8.1875-9.171875 1.335938-2.449219 3.292969-6.523437 3.070312-11.644531-.207031-3.410156-3.722656-5.394531-28.355468-5.394531-1.90625 0-3.9375.011719-6.101563.035156-.050781.003906-.105469.003906-.160156.003906-8.210937 0-18.515625-8.398437-18.976563-14.546875 3.5625-13.027344 14.113282-30.5 26.027344-38.277344 0 0-.289062-.011718-.832031-.011718-5.171875 0-35.570313.972656-52.753906 21.445312-7.585938-1.648437-12.835938-2.296875-19.839844-2.296875-.023437 0-.042969 0-.066406 0-9.234375.003907-17.527344 1.175781-23.730469 3.0625-4.023438-2.527343-22.203125-21.730469-22.203125-37.511719 0 0-19.136719 17.371094-19.136719 65.839844v3.058594c-4.789062 6.570312-25.265625 39.292969-25.265625 105.726562 0 89.871094 60.652344 185.117188 190.167969 185.117188 132.035156 0 189.773438-90.089844 197.199219-110.175781-13.78125 9.953125-36.746094 9.953125-36.746094 9.953125 13.011719-15.3125 41.339844-58.542969 41.339844-122.488282zm-81.148438 153.109376h3.128907c-14.726563 11.136718-31.136719 20.03125-48.828126 26.457031-22.886718 8.308593-48.101562 12.523437-74.945312 12.523437-26.773438 0-51.066406-4.632812-72.199219-13.773437-18.855469-8.152344-35.21875-19.886719-48.628906-34.878907-12.570313-14.050781-22.328125-30.644531-29.003906-49.3125-6.355469-17.777343-9.714844-37.324218-9.714844-56.53125 0-60.394531 18.597656-86.605468 19.390625-87.691406l5.875-8.058594 6.253906-8 13.371094-4.066406c1.335938-.40625 6.359375-1.730468 14.824219-1.738281h.066406c5.492187 0 10.75.539063 15.628906 1.601563l4.007813.867187c3.832031 9.390625 11.136718 17.300781 19.789062 22.808594-2.867187 3.003906-5.1875 6.289062-6.847656 10.023437l-.460938.113282-3.007812 1.503906c-7.769531 3.882812-29.941406 20.5-29.941406 48.058594 0 53.589843 24.5 133.207031 125.511718 133.207031 43.054688 0 79.714844-19.25 100.578126-52.8125 3.457031-5.566407 8.828124-17.484375 8.828124-17.484375 2.398438 49.625-40.085937 77.1875-40.085937 77.1875h26.410156zm0 0" fill="#ffffff" data-original="#ffffff" style="" class=""/></g></svg>
